<svg width="1158" height="443" viewBox="0 0 1158 443" fill="none" xmlns="http://www.w3.org/2000/svg">
<path d="M268.642 167.73C269.94 168.306 271.478 170.192 272.506 171.298C275.141 170.5 281.993 167.878 283.889 170.151C288.126 175.231 296.469 189.065 296.853 195.405C295.967 197.641 292.023 200.016 289.895 201.525C293.062 214.162 292.555 216.546 293.526 229.214C296.396 230.303 299.261 231.408 302.12 232.527C301.982 242.865 298.891 252.24 295.289 261.747C292.434 262.001 288.226 262.009 285.262 262.109C281.131 270.241 278.676 273.594 273.028 280.751C273.789 282.838 275.881 286.863 276.927 289.016C269.805 296.731 261.338 303.085 251.942 307.766L244.996 301.561C236.736 305.226 233.064 306.215 224.267 308.07C223.963 309.899 223.048 316.429 221.848 316.944C216.256 319.345 198.552 317.653 193.03 316.918C192.329 314.039 191.712 309.803 191.181 306.791C182.22 304.587 177.192 302.443 169.345 298.027C167.518 299.532 164.986 302.087 163.208 303.782L161.998 304.558C156.353 303.444 143.892 291.199 139.571 286.527L144.194 275.747C139.205 269.39 135.325 262.235 132.718 254.585C128.828 254.903 125.172 255.011 121.282 255.12C117.537 243.652 117.488 237.659 116.588 225.916C119.856 224.18 124.224 222.268 127.64 220.652C128.447 213.605 129.47 208.668 131.027 201.809C133.68 203.686 136.979 205.977 139.78 207.609C160.726 219.851 185.684 223.236 209.131 217.015C228.318 211.915 244.834 201.127 257.341 185.53C261.512 180.329 265.264 173.541 268.642 167.73Z" fill="#008F31"/>
<path d="M657.888 156.91C674.54 156.582 691.147 156.996 707.805 156.858C724.756 156.569 743.393 155.764 756.499 168.593C764.964 176.878 767.571 193.286 762.561 204.021C756.273 217.502 744.987 222.351 731.626 226.934C742.991 242.153 754.091 257.712 765.575 272.832C773.739 283.575 779.399 285.603 791.912 287.098L791.952 294.564C779.558 294.274 766.558 294.505 754.108 294.532L742.895 277.237C732.35 261.499 722.104 247.619 710.745 232.499L697.214 232.56C697.191 240.636 695.738 279.002 699.188 282.842C702.716 286.778 711.582 286.706 716.45 286.991L716.382 294.612C697.095 294.243 676.813 294.51 657.459 294.508L657.594 287.161C663.322 286.032 670.792 286.836 674.501 281.644C676.729 273.138 675.541 241.033 675.705 230.644C675.835 222.242 676.491 173.975 674.201 169.299C670.469 165.574 662.565 164.986 657.346 164.271C657.374 161.943 657.261 159.103 657.888 156.91ZM697.271 223.394C713.057 223.29 717.49 224.665 730.088 215.431C741.499 207.17 742.726 185.363 734.657 174.454C726.735 163.744 711.095 165.284 699.323 165.491L697.514 165.778C696.558 168.466 697.107 217.432 697.271 223.394Z" fill="#DF590E"/>
<path d="M458.975 156.816C471.915 156.084 490.879 156.693 504.249 156.72C504.382 159.19 504.262 161.93 504.211 164.422C502.097 164.645 499.986 164.888 497.878 165.154C488.078 166.416 486.018 168.276 485.915 178.285C485.625 206.571 485.837 234.868 485.79 263.158C485.781 268.813 485.571 275.691 487.151 281.125C490.662 285.854 498.598 286.316 504.281 287.238C504.45 289.305 504.409 292.462 504.439 294.613C484.367 294.222 463.29 294.508 443.161 294.55L443.063 287.116C463.762 285.086 465.075 284.476 464.702 262.563C464.611 257.198 464.694 250.961 464.685 245.525L464.548 187.883C464.434 183.075 464.518 178.433 464.601 173.631C460.973 181.498 456.311 194.428 452.998 202.765L429.874 260.935C427.633 266.593 419.476 288.56 416.701 291.806C414.718 292.545 414.185 292.437 412.047 292.244C407.191 286.239 372.209 185.956 366.355 170.989C367.537 193.252 366.396 215.798 366.767 238.183C366.973 250.551 365.246 268.064 370.881 279.412C373.153 283.989 385.269 286.085 390.266 287.326L390.176 294.592C371.703 294.438 352.167 294.273 333.748 294.669L333.923 287.109C343.946 285.478 353.7 284.954 355.165 272.673C357.268 255.044 356.149 237.2 356.397 219.445C356.565 207.398 356.481 195.087 356.043 183.056C355.097 168.164 347.616 166.001 334.957 164.275C334.797 161.65 334.116 158.684 336.19 156.966C341.636 156.622 377.351 156.303 381.561 157.196C383.883 158.711 418.145 250.673 421.245 259.24C431.637 229.328 444.728 200.016 455.4 170.173C456.896 165.99 457.972 161.157 458.975 156.816Z" fill="#DF590E"/>
<path d="M898.027 156.711C911.377 157.147 926.723 156.845 940.192 156.839L1018.28 156.712C1018.75 167.624 1018.43 183.84 1018.33 194.971L1010.8 195.027C1007.98 186.92 1003.42 177.163 997.464 170.91C990.407 163.494 978.454 165.017 968.582 165.119C968.797 189.952 968.865 214.785 968.797 239.619C968.785 251.118 968.621 262.626 968.768 274.121C968.853 280.76 970.719 282.798 976.837 284.637C978.188 284.981 979.936 285.408 981.287 285.585C989.39 286.651 990.814 286.166 990.6 294.563C969.345 294.29 946.174 294.147 924.982 294.551L924.97 287.071C935.646 285.268 946.779 288.398 946.96 273.975C947.423 237.722 946.694 201.409 947.095 165.159C940.819 165.054 929.33 164.408 923.896 166.986C914.436 171.477 908.884 185.526 905.389 194.705C902.992 194.988 900.091 194.859 897.643 194.826C897.524 184.889 896.981 166.077 898.027 156.711Z" fill="#EA7A03"/>
<path d="M527.532 156.752L585.892 156.699C586.102 158.943 585.977 162.083 585.955 164.4C582.46 164.814 578.825 165.111 575.392 165.922C572.876 166.519 569.721 167.686 568.381 170.055C565.921 174.401 566.696 262.003 567.16 271.491C567.324 274.856 567.725 278.38 568.845 281.572C569.371 283.054 570.106 283.76 571.559 284.418C578.83 287.72 600.435 286.978 607.865 284.081C618.84 279.799 625.523 263.316 630.018 253.196C632.15 252.959 635.746 252.972 637.991 252.921C638.149 255.532 637.878 259.917 637.782 262.659C637.12 273.098 636.12 284.088 635.362 294.589L527.111 294.532L527.039 287.23C532.77 286.226 544.2 286.76 544.977 279.035C545.837 270.502 545.552 261.666 545.559 253.072L545.575 205.757C545.573 201.871 545.744 197.778 545.568 193.894C544.678 174.193 550.54 168.007 527.108 164.262C527.073 161.303 527.19 159.693 527.532 156.752Z" fill="#DF590E"/>
<path d="M815.034 156.909C821.972 156.632 874.302 156.498 876.185 157.818C876.598 159.937 876.626 160.267 876.377 162.408C874.376 164.861 872.572 164.835 869.496 165.097C863.994 165.567 855.558 167.152 855.553 174.38C855.547 207.12 855.383 239.935 855.643 272.679C855.666 275.254 856.248 278.872 857.147 281.295C861.077 285.772 870.531 286.386 876.411 287.294C876.553 289.806 877.197 293.106 875.179 294.673C855.96 293.845 833.065 294.457 813.615 294.487C813.643 292.153 813.835 289.464 813.948 287.105C819.342 286.438 823.538 286.438 828.994 285.13C830.742 283.494 832.183 281.918 833.801 280.166C833.846 279.311 833.88 278.456 833.902 277.6C834.078 267.9 833.97 258.062 833.965 248.349C833.948 224.894 834.123 201.42 833.84 177.972C833.817 176.434 833.388 171.082 832.246 170.133C827.439 166.148 819.603 165.22 813.541 164.273C813.536 163.315 813.541 162.358 813.558 161.4C813.62 158.82 813.507 158.36 815.034 156.909Z" fill="#EA7A03"/>
<path d="M269.284 132.438L270.108 132.757C272.718 136.66 276.84 156.126 277.718 161.333L266.159 156.505C263.308 163.389 259.119 170.022 254.402 175.788C239.524 194.22 217.917 205.957 194.365 208.403C168.809 210.902 147.015 203.176 127.435 187.139C126.646 186.638 126.497 186.24 125.986 185.428C126.102 181.717 131.526 174.151 133.68 170.797C138.833 176.438 144.923 181.142 151.679 184.702C167.686 193.113 186.374 194.822 203.639 189.456C227.14 182.214 236.626 168.573 247.208 148.498C243.045 146.741 238.846 145.072 234.614 143.492C244.366 139.979 258.893 135.877 269.284 132.438Z" fill="#00982F"/>
<path d="M204.639 143.941C214.779 143.059 223.207 144.165 232.929 146.973C228.084 158.145 219.63 167.364 208.922 173.153C194.769 180.968 180.784 181.157 165.635 176.761C159.174 174.405 156.279 172.509 150.668 168.786C156.953 162.43 160.594 159.822 167.877 154.783C175.726 158.995 183.718 161.454 192.137 156.911C194.527 155.621 200.444 150.818 198.757 147.977C196.338 147.345 188.022 147.733 185.079 147.792C192.564 145.143 196.912 144.421 204.639 143.941Z" fill="#00952F"/>
</svg>
